# xmcd
#
# Track frame offsets:
# 150
# 17595
# 30940
# 43652
# 54772
# 69445
# 81962
# 96777
# 105475
# 118645
#
# Disc length: 1841 seconds
#
#
# Revision: 0
# Processed by: cddbd v1.5.1PL2 Copyright (c) Steve Scherf et al.
# Submitted via: FreeRIP 2.943 
#
DISCID=6d072f0a
DTITLE=Tennessee Ernie Ford - Country Gospel Classics Volume 1
DYEAR=1900
DGENRE=Gospel
TTITLE0=What A Friend We Have In Jesus
TTITLE1=Must Jesus Bear the Cross Alone?
TTITLE2=In The Garden
TTITLE3=Whispering Hope
TTITLE4=His Eye is on the Sparrow
TTITLE5=Rock Of Ages
TTITLE6=Where You There?
TTITLE7=All Hail The Power
TTITLE8=The Old Rugged Cross
TTITLE9=Did You Think To Pray?
EXTD=
EXTT0=
EXTT1=
EXTT2=
EXTT3=
EXTT4=
EXTT5=
EXTT6=
EXTT7=
EXTT8=
EXTT9=
PLAYORDER=
